<svg width="219" height="129" viewBox="0 0 219 129" fill="none" xmlns="http://www.w3.org/2000/svg">
<path d="M105.934 35.1211V61H101.383V35.1211H94.4492V30.8438H112.848V35.1211H105.934ZM121.461 42.6406H134.469V30.8438H139.02V61H134.469V46.918H121.461V61H116.91V30.8438H121.461V42.6406ZM162.887 35.1211H150.797V42.3672H162.535V46.6445H150.797V56.7227H162.887V61H146.246V30.8438H162.887V35.1211ZM114.664 75.3359L110.973 77.5234C110.283 76.3255 109.625 75.5443 109 75.1797C108.349 74.763 107.509 74.5547 106.48 74.5547C105.217 74.5547 104.169 74.9128 103.336 75.6289C102.503 76.332 102.086 77.2174 102.086 78.2852C102.086 79.7565 103.18 80.9414 105.367 81.8398L108.375 83.0703C110.823 84.0599 112.613 85.2708 113.746 86.7031C114.879 88.1224 115.445 89.8672 115.445 91.9375C115.445 94.7109 114.521 97.0026 112.672 98.8125C110.81 100.635 108.499 101.547 105.738 101.547C103.121 101.547 100.96 100.772 99.2539 99.2227C97.5742 97.6732 96.526 95.4922 96.1094 92.6797L100.719 91.6641C100.927 93.4349 101.292 94.6589 101.812 95.3359C102.75 96.638 104.117 97.2891 105.914 97.2891C107.333 97.2891 108.512 96.8138 109.449 95.8633C110.387 94.9128 110.855 93.7083 110.855 92.25C110.855 91.6641 110.771 91.1302 110.602 90.6484C110.445 90.1536 110.191 89.7044 109.84 89.3008C109.501 88.8841 109.059 88.5 108.512 88.1484C107.965 87.7839 107.314 87.4388 106.559 87.1133L103.648 85.9023C99.5208 84.1576 97.457 81.6055 97.457 78.2461C97.457 75.9805 98.3229 74.0859 100.055 72.5625C101.786 71.026 103.941 70.2578 106.52 70.2578C109.996 70.2578 112.711 71.9505 114.664 75.3359ZM125.484 82.6406H138.492V70.8438H143.043V101H138.492V86.918H125.484V101H120.934V70.8438H125.484V82.6406ZM166.91 75.1211H154.82V82.3672H166.559V86.6445H154.82V96.7227H166.91V101H150.27V70.8438H166.91V75.1211ZM177.438 70.8438V96.7227H186.305V101H172.887V70.8438H177.438ZM205.68 75.1211H195.172V82.3672H205.309V86.6445H195.172V101H190.621V70.8438H205.68V75.1211Z" fill="#202020"/>
<path d="M87.5437 93.1302L78.4527 77.3841C75.5204 81.3208 70.3958 83.2947 65.3668 81.9334L36.9572 74.2431L30.8328 77.779C27.3353 79.7983 26.1453 84.285 28.175 87.8005L45.325 117.505C47.3547 121.021 51.8353 122.234 55.3328 120.214L84.8859 103.152C88.3835 101.132 89.5734 96.6457 87.5437 93.1302ZM54.693 92.2935C53.6785 90.5364 54.2738 88.292 56.0219 87.2827C57.7713 86.2727 60.0113 86.8802 61.0258 88.6372C62.0402 90.3943 61.4463 92.638 59.6969 93.648C57.9488 94.6573 55.7074 94.0506 54.693 92.2935ZM75.7748 71.9231L85.4608 35.4008C86.5217 31.4006 84.1429 27.2804 80.1481 26.199L43.6752 16.3249C39.6804 15.2436 35.5812 17.6102 34.5203 21.6105L24.8329 58.1335C23.772 62.1338 26.1508 66.254 30.1456 67.3353L66.6186 77.2094C70.6147 78.29 74.7138 75.9233 75.7748 71.9231ZM42.1805 31.6212C41.166 29.8641 41.7612 27.6197 43.5094 26.6104C45.2588 25.6004 47.4988 26.2079 48.5133 27.9649C49.5277 29.722 48.9338 31.9657 47.1844 32.9757C45.4362 33.985 43.1949 33.3783 42.1805 31.6212ZM35.093 58.3453C34.0785 56.5882 34.6738 54.3438 36.4219 53.3345C38.1713 52.3245 40.4113 52.932 41.4258 54.689C42.4402 56.4461 41.8463 58.6898 40.0969 59.6998C38.3488 60.7091 36.1074 60.1024 35.093 58.3453ZM51.9805 48.5953C50.966 46.8382 51.5612 44.5938 53.3094 43.5845C55.0588 42.5745 57.2988 43.182 58.3133 44.939C59.3277 46.6961 58.7338 48.9398 56.9844 49.9498C55.2362 50.9591 52.9949 50.3524 51.9805 48.5953ZM68.868 38.8453C67.8535 37.0882 68.4487 34.8438 70.1969 33.8345C71.9463 32.8245 74.1863 33.432 75.2008 35.189C76.2152 36.9461 75.6213 39.1898 73.8719 40.1998C72.1237 41.2091 69.8824 40.6024 68.868 38.8453ZM61.7805 65.5694C60.766 63.8123 61.3612 61.5679 63.1094 60.5586C64.8588 59.5486 67.0988 60.1561 68.1133 61.9131C69.1277 63.6702 68.5338 65.9139 66.7844 66.9239C65.0362 67.9332 62.7949 67.3265 61.7805 65.5694Z" fill="#202020"/>
</svg>
